{
  "accessors": [
    {
      "bufferView": 2,
      "componentType": 5126,
      "count": 10605,
      "max": [
        0.9879124164581299,
        3.919328212738037,
        0.8040749430656433
      ],
      "min": [
        -0.9715254306793213,
        -5.699619770050049,
        -1.680534839630127
      ],
      "type": "VEC3"
    },
    {
      "bufferView": 2,
      "byteOffset": 127260,
      "componentType": 5126,
      "count": 10605,
      "max": [
        1.0,
        1.0,
        1.0
      ],
      "min": [
        -1.0,
        -1.0,
        -1.0
      ],
      "type": "VEC3"
    },
    {
      "bufferView": 3,
      "componentType": 5126,
      "count": 10605,
      "max": [
        1.0,
        1.0,
        1.0,
        1.0
      ],
      "min": [
        -1.0,
        -1.0,
        -1.0,
        -1.0
      ],
      "type": "VEC4"
    },
    {
      "bufferView": 1,
      "componentType": 5126,
      "count": 10605,
      "max": [
        0.9989486932754517,
        0.9955117106437683
      ],
      "min": [
        0.001051287748850882,
        0.001051287748850882
      ],
      "type": "VEC2"
    },
    {
      "bufferView": 0,
      "componentType": 5125,
      "count": 36444,
      "type": "SCALAR"
    }
  ],
  "asset": {
    "extras": {
      "author": "Kirhl (https://sketchfab.com/Kirhl)",
      "license": "CC-BY-4.0 (http://creativecommons.org/licenses/by/4.0/)",
      "source": "https://sketchfab.com/3d-models/thompson-submachine-gun-914b7507bfc0400192f68a0b32183e02",
      "title": "Thompson submachine gun"
    },
    "generator": "Sketchfab-12.68.0",
    "version": "2.0"
  },
  "bufferViews": [
    {
      "buffer": 0,
      "byteLength": 145776,
      "name": "floatBufferViews",
      "target": 34963
    },
    {
      "buffer": 0,
      "byteLength": 84840,
      "byteOffset": 145776,
      "byteStride": 8,
      "name": "floatBufferViews",
      "target": 34962
    },
    {
      "buffer": 0,
      "byteLength": 254520,
      "byteOffset": 230616,
      "byteStride": 12,
      "name": "floatBufferViews",
      "target": 34962
    },
    {
      "buffer": 0,
      "byteLength": 169680,
      "byteOffset": 485136,
      "byteStride": 16,
      "name": "floatBufferViews",
      "target": 34962
    }
  ],
  "buffers": [
    {
      "byteLength": 654816,
      "uri": "scene.bin"
    }
  ],
  "images": [
    {
      "uri": "textures/lowpoly_baseColor.png"
    },
    {
      "uri": "textures/lowpoly_metallicRoughness.png"
    },
    {
      "uri": "textures/lowpoly_normal.png"
    }
  ],
  "materials": [
    {
      "doubleSided": true,
      "name": "lowpoly",
      "normalTexture": {
        "index": 2
      },
      "occlusionTexture": {
        "index": 1
      },
      "pbrMetallicRoughness": {
        "baseColorTexture": {
          "index": 0
        },
        "metallicRoughnessTexture": {
          "index": 1
        }
      }
    }
  ],
  "meshes": [
    {
      "name": "Low_poly.002_low+poly_0",
      "primitives": [
        {
          "attributes": {
            "NORMAL": 1,
            "POSITION": 0,
            "TANGENT": 2,
            "TEXCOORD_0": 3
          },
          "indices": 4,
          "material": 0,
          "mode": 4
        }
      ]
    }
  ],
  "nodes": [
    {
      "children": [
        1
      ],
      "matrix": [
        1.0,
        0.0,
        0.0,
        0.0,
        0.0,
        2.220446049250313e-16,
        -1.0,
        0.0,
        0.0,
        1.0,
        2.220446049250313e-16,
        0.0,
        0.0,
        0.0,
        0.0,
        1.0
      ],
      "name": "Sketchfab_model"
    },
    {
      "children": [
        2
      ],
      "matrix": [
        1.0,
        0.0,
        0.0,
        0.0,
        0.0,
        0.0,
        1.0,
        0.0,
        0.0,
        -1.0,
        0.0,
        0.0,
        0.0,
        0.0,
        0.0,
        1.0
      ],
      "name": "4fb12b52823c4652a00ffd9ff5b162bb.fbx"
    },
    {
      "children": [
        3
      ],
      "name": "RootNode"
    },
    {
      "children": [
        4
      ],
      "matrix": [
        1.0,
        0.0,
        0.0,
        0.0,
        -0.0,
        -1.6292067939183141e-07,
        -0.9999999999999868,
        0.0,
        0.0,
        0.9999999999999868,
        -1.6292067939183141e-07,
        0.0,
        -0.028557531535625458,
        0.5644545555114746,
        -1.0043177604675293,
        1.0
      ],
      "name": "Low_poly.002"
    },
    {
      "mesh": 0,
      "name": "Low_poly.002_low+poly_0"
    }
  ],
  "samplers": [
    {
      "magFilter": 9729,
      "minFilter": 9987,
      "wrapS": 10497,
      "wrapT": 10497
    }
  ],
  "scene": 0,
  "scenes": [
    {
      "name": "Sketchfab_Scene",
      "nodes": [
        0
      ]
    }
  ],
  "textures": [
    {
      "sampler": 0,
      "source": 0
    },
    {
      "sampler": 0,
      "source": 1
    },
    {
      "sampler": 0,
      "source": 2
    }
  ]
}
